<svg xmlns="http://www.w3.org/2000/svg" viewBox="0 0 200 200" width="200" height="200">
  <!-- Shield background -->
  <path d="M100 10 L185 50 L185 120 Q185 170 100 195 Q15 170 15 120 L15 50 Z" fill="#1B2A4A" stroke="#D4A843" stroke-width="4"/>
  <!-- Inner shield -->
  <path d="M100 25 L170 58 L170 115 Q170 158 100 180 Q30 158 30 115 L30 58 Z" fill="#101D33"/>
  <!-- Book icon -->
  <rect x="60" y="70" width="80" height="60" rx="4" fill="none" stroke="#D4A843" stroke-width="2.5"/>
  <line x1="100" y1="70" x2="100" y2="130" stroke="#D4A843" stroke-width="2"/>
  <line x1="70" y1="82" x2="92" y2="82" stroke="#00897B" stroke-width="2"/>
  <line x1="70" y1="92" x2="92" y2="92" stroke="#00897B" stroke-width="2"/>
  <line x1="70" y1="102" x2="88" y2="102" stroke="#00897B" stroke-width="2"/>
  <line x1="108" y1="82" x2="130" y2="82" stroke="#00897B" stroke-width="2"/>
  <line x1="108" y1="92" x2="130" y2="92" stroke="#00897B" stroke-width="2"/>
  <line x1="108" y1="102" x2="126" y2="102" stroke="#00897B" stroke-width="2"/>
  <!-- Graduation cap -->
  <polygon points="100,38 140,55 100,65 60,55" fill="#D4A843"/>
  <line x1="100" y1="55" x2="100" y2="70" stroke="#D4A843" stroke-width="2"/>
  <line x1="135" y1="56" x2="135" y2="68" stroke="#D4A843" stroke-width="2"/>
  <circle cx="135" cy="70" r="3" fill="#D4A843"/>
  <!-- QQSGPT text -->
  <text x="100" y="152" text-anchor="middle" fill="#D4A843" font-family="Georgia, serif" font-size="16" font-weight="bold" letter-spacing="3">QQSGPT</text>
</svg>